<svg width="48" height="48" viewBox="0 0 48 48" fill="none" xmlns="http://www.w3.org/2000/svg">
<path d="M44.9519 17.8774C43.3126 17.8774 41.9773 19.2127 41.9773 20.852V25.3846C41.0057 25.0803 39.8927 25.3105 39.1212 26.082L33.1792 32.024C27.8604 33.8416 26.7996 39.3902 26.592 41.3561H26.5104C26.1023 41.3561 25.7686 41.6897 25.7686 42.0978V46.7414C25.7686 46.9415 25.8502 47.1273 25.9838 47.268C26.1248 47.4091 26.3103 47.4832 26.5104 47.4832L38.5501 47.4534C38.9582 47.4534 39.2918 47.1198 39.2918 46.7117V42.0975C39.2918 41.6894 38.9582 41.3557 38.5501 41.3557H38.4982C38.617 40.9107 38.8468 40.5026 39.1733 40.169L46.7027 32.6396C47.4889 31.8534 47.9192 30.8074 47.9192 29.6947L47.9188 20.8522C47.9263 19.213 46.591 17.8777 44.9517 17.8777L44.9519 17.8774ZM37.808 45.9776L27.252 45.9998V42.8397H37.808V45.9776ZM46.4429 29.7021C46.4429 30.4216 46.1612 31.0893 45.6568 31.6013L38.127 39.1231C37.5188 39.7313 37.1182 40.4953 36.9697 41.3262H28.0905C28.3057 39.494 29.2998 34.8279 33.8174 33.374C33.9287 33.3368 34.0325 33.2777 34.1142 33.1886L40.1822 27.1206C40.7088 26.594 41.5694 26.594 42.0961 27.1206C42.3484 27.3729 42.4891 27.7141 42.4891 28.0775C42.4891 28.4408 42.3481 28.7748 42.0961 29.0344L38.2462 32.8771C37.9569 33.1663 37.9569 33.6339 38.2462 33.9232C38.5354 34.2124 39.003 34.2124 39.2922 33.9232L43.1421 30.0804C44.1212 29.0938 44.2326 27.5658 43.4686 26.4604V26.4085V20.8373C43.4686 20.0139 44.1363 19.3462 44.9597 19.3462C45.7828 19.3462 46.4433 20.0286 46.4433 20.852L46.4429 29.7021Z" fill="white"/>
<path d="M21.8595 41.3634H21.7779C21.5703 39.3977 20.5095 33.8487 15.1908 32.0314L9.24872 26.0893C8.47724 25.3179 7.37208 25.088 6.39263 25.392V20.8594C6.39263 19.2201 5.05734 17.8848 3.41807 17.8848C1.78597 17.8773 0.450684 19.2127 0.450684 20.8519V29.7014C0.450684 30.8141 0.880995 31.8601 1.67467 32.6463L9.20405 40.1757C9.53771 40.5093 9.76038 40.9174 9.87923 41.3624H9.82732C9.4192 41.3624 9.08554 41.6961 9.08554 42.1042V46.7184C9.08554 47.1265 9.4192 47.4601 9.82732 47.4601L21.867 47.4898C22.06 47.4898 22.2529 47.4082 22.3936 47.2747C22.5347 47.1336 22.6088 46.9482 22.6088 46.7481V42.1045C22.6013 41.6968 22.2748 41.3631 21.8595 41.3631L21.8595 41.3634ZM2.72071 31.6012C2.2163 31.0896 1.9342 30.422 1.9342 29.7024V20.8521C1.9342 20.0287 2.60186 19.361 3.42528 19.361C4.24868 19.361 4.91637 20.0286 4.91637 20.8521V26.4232V26.4751C4.1524 27.5803 4.26373 29.1086 5.24286 30.0952L9.09274 33.9379C9.382 34.2272 9.84953 34.2272 10.1388 33.9379C10.4281 33.6486 10.4281 33.1811 10.1388 32.8918L6.28893 29.0491C5.76232 28.5225 5.76232 27.6619 6.28893 27.1352C6.81554 26.6086 7.67615 26.6086 8.20281 27.1352L14.2708 33.2032C14.3525 33.2849 14.4563 33.3515 14.5676 33.3887C19.1371 34.8576 20.094 39.5011 20.2945 41.3409H11.4004C11.2522 40.5099 10.8516 39.746 10.2431 39.1378L2.72071 31.6012ZM21.1173 45.9997L10.5612 45.9775V42.8472H21.1173V45.9997Z" fill="white"/>
<path d="M32.6455 12.485C32.6455 7.81884 28.8547 4.02832 24.1889 4.02832C19.5228 4.02832 15.7322 7.8191 15.7322 12.485C15.7322 17.1511 19.523 20.9416 24.1889 20.9416C28.855 20.9416 32.6455 17.1512 32.6455 12.485ZM24.1889 19.458C20.3462 19.458 17.2158 16.3277 17.2158 12.485C17.2158 8.64224 20.3462 5.51188 24.1889 5.51188C28.0316 5.51188 31.1619 8.64224 31.1619 12.485C31.1619 16.3277 28.0316 19.458 24.1889 19.458Z" fill="white"/>
<path d="M29.3661 30.0877C29.4997 30.3175 29.7445 30.4586 30.0116 30.4586H30.0782C30.3674 30.4364 30.6123 30.2434 30.7086 29.9764L32.2369 25.8146L36.6062 26.5714C36.8955 26.6233 37.1776 26.4973 37.3405 26.2671C37.5037 26.0298 37.5184 25.7183 37.3777 25.4735L33.9506 19.5389C34.3884 19.3907 34.774 19.1605 35.0189 18.7453C35.4417 18.011 35.1302 17.1579 34.8632 16.4011C34.7221 16.0152 34.5367 15.4886 34.5886 15.281C34.6405 15.0956 35.0708 14.7322 35.3526 14.4948C35.983 13.9682 36.6879 13.3747 36.6879 12.4994C36.6879 11.6241 35.9758 11.0305 35.3526 10.5039C35.0633 10.2666 34.633 9.90321 34.5886 9.71777C34.5292 9.51013 34.7221 8.98352 34.8632 8.59765C35.1378 7.84085 35.4492 6.98775 35.0189 6.25353C34.5886 5.51176 33.6836 5.34848 32.8899 5.20746C32.4893 5.14086 31.9477 5.04421 31.8069 4.89599C31.6587 4.74778 31.562 4.20614 31.4954 3.80551C31.3544 3.00431 31.1911 2.10678 30.4494 1.67646C29.7151 1.25367 28.862 1.55761 28.1052 1.83219C27.7193 1.97324 27.1927 2.15868 26.9851 2.10677C26.7997 2.05486 26.4363 1.62455 26.199 1.33529C25.6723 0.704852 25.0788 0 24.2035 0C23.3282 0 22.7346 0.712056 22.208 1.33529C21.9707 1.62455 21.6073 2.05486 21.4219 2.10677C21.2142 2.15868 20.6876 1.97324 20.3018 1.83219C19.545 1.55761 18.6919 1.24615 17.9576 1.67646C17.2159 2.10678 17.0526 3.01175 16.9116 3.80551C16.845 4.2061 16.7483 4.74772 16.6001 4.89599C16.4519 5.04427 15.9102 5.14086 15.5096 5.20746C14.6934 5.33382 13.7959 5.48955 13.3656 6.23132C12.9428 6.96558 13.2543 7.81866 13.5213 8.57544C13.6624 8.96135 13.8478 9.48801 13.7959 9.69556C13.744 9.88101 13.3137 10.2444 13.0244 10.4817C12.394 11.0083 11.6892 11.6019 11.6892 12.4772C11.6892 13.3525 12.4012 13.9461 13.0244 14.4726C13.3137 14.71 13.744 15.0734 13.7884 15.2588C13.8478 15.4664 13.6549 15.9931 13.5138 16.3789C13.2393 17.1357 12.9278 17.9888 13.3581 18.723C13.5955 19.1383 13.9885 19.3685 14.4264 19.5167L10.9993 25.4512C10.8583 25.7036 10.8658 26.0076 11.0365 26.2449C11.1998 26.4823 11.4815 26.6011 11.7708 26.5492L16.1402 25.7924L17.6684 29.9542C17.7647 30.2212 18.0171 30.4142 18.2988 30.4364H18.3654C18.625 30.4364 18.8774 30.2953 19.0109 30.0655L22.5121 23.9975C22.9646 24.5019 23.4837 24.9619 24.1886 24.9619C24.8936 24.9619 25.4126 24.5019 25.8652 23.9975L29.3661 30.0877ZM31.8811 24.2424C31.5249 24.1829 31.1837 24.3834 31.0577 24.7171L29.8634 27.9738L26.9407 22.9071C26.9554 22.8995 26.9704 22.8849 26.9779 22.8849C27.1856 22.8329 27.7122 23.0184 28.098 23.1594C28.8548 23.434 29.7079 23.738 30.4422 23.3152C31.1839 22.8848 31.3472 21.9799 31.4882 21.1861C31.5548 20.7855 31.6515 20.2439 31.7997 20.1031C31.896 20.0068 32.1559 19.9399 32.4301 19.8805L35.2934 24.8431L31.8811 24.2424ZM18.5212 27.9738L17.327 24.7171C17.2009 24.3834 16.8598 24.183 16.5036 24.2424L13.084 24.8359L15.9548 19.8734C16.2365 19.9328 16.4964 20.0069 16.5852 20.096C16.7334 20.2443 16.8301 20.7859 16.8967 21.1865C17.0377 21.9877 17.201 22.8852 17.9427 23.3156C18.677 23.7384 19.5301 23.4344 20.2869 23.1598C20.6728 23.0188 21.1994 22.8333 21.407 22.8853C21.4217 22.8853 21.4367 22.9075 21.4514 22.9075L18.5212 27.9738ZM24.1886 23.5006C24.0032 23.5006 23.5654 22.974 23.328 22.6919C22.883 22.1653 22.423 21.6161 21.7851 21.4457C21.6294 21.4013 21.4736 21.3863 21.3179 21.3863C20.806 21.3863 20.2869 21.5717 19.7825 21.7572C19.456 21.876 18.8403 22.0984 18.6845 22.0242C18.5434 21.9426 18.4174 21.2528 18.358 20.9191C18.2391 20.2292 18.1131 19.5172 17.6309 19.0424C17.1562 18.5677 16.4442 18.4417 15.7543 18.3153C15.4206 18.2559 14.7304 18.1374 14.6491 17.9889C14.575 17.8331 14.7973 17.2174 14.9162 16.8909C15.1535 16.2307 15.4059 15.5409 15.2276 14.8807C15.0569 14.2428 14.508 13.7827 13.9814 13.3378C13.6997 13.1004 13.1727 12.6554 13.1727 12.4772C13.1727 12.2917 13.6993 11.8539 13.9814 11.6165C14.508 11.1715 15.0572 10.7115 15.2276 10.0736C15.4056 9.41346 15.1535 8.73081 14.9162 8.06347C14.7973 7.73698 14.575 7.12126 14.6491 6.96546C14.7307 6.82442 15.4206 6.6984 15.7543 6.63897C16.4441 6.52012 17.1562 6.39411 17.6309 5.91189C18.1056 5.43718 18.2316 4.72514 18.358 4.03525C18.4174 3.70159 18.5359 3.01138 18.6845 2.93008C18.8402 2.86348 19.456 3.07829 19.7825 3.19714C20.4426 3.43449 21.1325 3.68688 21.7926 3.5086C22.4306 3.33785 22.8906 2.78903 23.3356 2.26241C23.5729 1.98065 24.0179 1.4537 24.1962 1.4537C24.3741 1.4537 24.8194 1.98031 25.0568 2.26241C25.5018 2.78902 25.9619 3.33821 26.5997 3.5086C27.2599 3.68654 27.9425 3.43449 28.6099 3.19714C28.9364 3.07829 29.5521 2.85597 29.7079 2.93008C29.8561 3.0117 29.9749 3.70156 30.0344 4.03525C30.1532 4.72511 30.2792 5.43716 30.7615 5.91189C31.2362 6.3866 31.9482 6.51261 32.6381 6.63146C32.9718 6.69089 33.662 6.8094 33.7433 6.95795C33.8174 7.11368 33.5951 7.72944 33.4762 8.05596C33.2389 8.71611 32.9865 9.40593 33.1647 10.0661C33.3355 10.7041 33.8843 11.1641 34.4109 11.609C34.6927 11.8464 35.2196 12.2842 35.2196 12.4697C35.2196 12.6551 34.693 13.0929 34.4109 13.3303C33.8843 13.7753 33.3351 14.2353 33.1647 14.8732C32.9868 15.5333 33.2388 16.216 33.4762 16.8833C33.5951 17.217 33.8174 17.8256 33.7433 17.9813C33.6616 18.1224 32.9718 18.2484 32.6381 18.3078C31.9482 18.4267 31.2362 18.5527 30.7615 19.0349C30.2867 19.5096 30.1607 20.2217 30.0344 20.9116C29.9749 21.2452 29.8564 21.9354 29.7079 22.0167C29.5522 22.0833 28.9364 21.8685 28.6099 21.7497C27.9497 21.5123 27.2599 21.2599 26.5997 21.4382C25.9618 21.609 25.5017 22.1578 25.0568 22.6844C24.8119 22.974 24.3741 23.5006 24.1887 23.5006L24.1886 23.5006Z" fill="white"/>
<path d="M27.7198 9.06486L22.453 14.3317L20.6577 12.5364C20.3684 12.2471 19.9009 12.2471 19.6116 12.5364C19.3223 12.8256 19.3223 13.2931 19.6116 13.5824L21.9261 15.8969C22.0743 16.0451 22.2597 16.1121 22.4527 16.1121C22.6456 16.1121 22.8311 16.0379 22.9793 15.8969L28.7728 10.1034C29.0621 9.81415 29.0621 9.34662 28.7728 9.05734C28.4842 8.76841 28.0092 8.77558 27.7199 9.06485L27.7198 9.06486Z" fill="white"/>
</svg>
