<svg width="15" height="16" viewBox="0 0 15 16" fill="none" xmlns="http://www.w3.org/2000/svg">
<path d="M15 0.431641H0V15.4626H15V0.431641ZM5 12.1224H2.8975V6.277H5V12.1224ZM3.91167 5.20563C3.26917 5.20563 2.84 4.77641 2.84 4.20357C2.84 3.63072 3.26833 3.20151 3.9825 3.20151C4.625 3.20151 5.05417 3.63072 5.05417 4.20357C5.05417 4.77641 4.62583 5.20563 3.91167 5.20563ZM12.5 12.1224H10.465V8.92745C10.465 8.04397 9.9225 7.84022 9.71917 7.84022C9.51583 7.84022 8.8375 7.97633 8.8375 8.92745C8.8375 9.06357 8.8375 12.1224 8.8375 12.1224H6.735V6.277H8.8375V7.09284C9.10833 6.61687 9.65083 6.277 10.6683 6.277C11.6858 6.277 12.5 7.09284 12.5 8.92745V12.1224Z" fill="#696969"/>
</svg>
