<svg width="15" height="15" viewBox="0 0 15 15" fill="none" xmlns="http://www.w3.org/2000/svg">
<path fill-rule="evenodd" clip-rule="evenodd" d="M7.14135 0.945605C7.00533 0.951402 6.88734 1.04132 6.84547 1.17114L5.31351 5.92899L0.325857 5.9191C0.184731 5.91887 0.0594883 6.00993 0.0159225 6.14441C-0.0276403 6.27889 0.0202335 6.42622 0.134471 6.5092L4.17594 9.43974L2.62411 14.1926L2.62423 14.1925C2.58033 14.327 2.62797 14.4743 2.74221 14.5575C2.85634 14.6406 3.01096 14.6405 3.12498 14.5572L7.15512 11.6101L11.1867 14.5572V14.5571C11.3007 14.6404 11.4554 14.6405 11.5696 14.5574C11.6837 14.4742 11.7314 14.3268 11.6875 14.1924L10.1356 9.43952L14.1771 6.50897L14.1772 6.50909C14.2916 6.4261 14.3395 6.27877 14.2959 6.14418C14.2522 6.0097 14.1271 5.91864 13.9858 5.91898L8.99819 5.92887L7.46452 1.17103C7.41959 1.03166 7.28743 0.939464 7.14143 0.945601L7.14135 0.945605Z" fill="#F5CC26"/>
</svg>
