<svg width="36" height="47" viewBox="0 0 36 47" fill="none" xmlns="http://www.w3.org/2000/svg">
<path d="M35.907 17.7515C35.8971 17.7252 35.8851 17.7019 35.8727 17.6767C35.8406 17.6121 35.8012 17.5537 35.7534 17.4993C35.737 17.4811 35.7238 17.4614 35.7059 17.4446C35.6414 17.3837 35.5695 17.3297 35.4855 17.2917L35.4655 17.2826H35.4651L26.9732 13.4147V8.5824C26.9732 3.85005 23.1236 0 18.3908 0C13.6581 0 9.80843 3.85005 9.80843 8.5824V12.2606H7.35632C7.01404 12.2606 6.70826 12.4737 6.59004 12.794C6.47109 13.1148 6.56449 13.4757 6.82466 13.6983L7.35997 14.1569L0.479109 17.2914C0.395183 17.3294 0.323295 17.3834 0.258708 17.4443C0.240828 17.4611 0.227327 17.4808 0.210907 17.4994C0.163105 17.5534 0.123331 17.6122 0.0915894 17.6768C0.0791831 17.7016 0.0671413 17.7249 0.057289 17.7512C0.0237179 17.8417 0 17.9359 0 18.0358V38.3636C0 38.684 0.186828 38.9748 0.478746 39.1076L17.6435 46.9263C17.6556 46.9318 17.6687 46.9296 17.6808 46.9343C17.7771 46.973 17.8774 47 17.9825 47C17.9847 47 17.9869 46.9985 17.9895 46.9985C18.0898 46.9974 18.1872 46.9723 18.2814 46.9347C18.2942 46.9296 18.3077 46.9318 18.3204 46.9263L35.4852 39.1076C35.7775 38.9745 35.9643 38.684 35.9643 38.3633V18.0364C35.9643 17.9364 35.9406 17.8423 35.907 17.7521L35.907 17.7515ZM10.6255 13.8953C11.0772 13.8953 11.4428 13.5293 11.4428 13.0779V8.58235C11.4428 4.75126 14.5598 1.63469 18.3905 1.63469C22.2212 1.63469 25.3382 4.75126 25.3382 8.58235V16.3474H22.0687V8.58235C22.0687 6.55424 20.4186 4.90418 18.3905 4.90418C16.3624 4.90418 14.7123 6.55424 14.7123 8.58235V13.0779C14.7123 13.5293 15.078 13.8953 15.5297 13.8953H16.5898L13.0776 16.9057L9.75299 14.0558C9.74387 14.0285 9.74605 14.0004 9.73401 13.9737C9.72015 13.9431 9.69424 13.9234 9.67709 13.8953L10.6255 13.8953ZM8.72805 15.33L12.546 18.6024C12.6985 18.7341 12.8886 18.7994 13.0776 18.7994C13.2666 18.7994 13.4568 18.7341 13.6093 18.6027L19.3309 13.6985C19.5911 13.4759 19.6845 13.115 19.5655 12.7943C19.4473 12.4736 19.1415 12.2605 18.7992 12.2605H16.3471V8.58229C16.3471 7.45553 17.2634 6.53887 18.3905 6.53887C19.5177 6.53887 20.434 7.45549 20.434 8.58229V17.1647C20.434 17.6161 20.7996 17.9821 21.2513 17.9821H26.1556C26.6073 17.9821 26.9729 17.6161 26.9729 17.1647V15.2107L33.1751 18.0357L17.9823 24.9556L2.78949 18.0353L8.72805 15.33ZM1.63439 37.8371V19.3057L17.1644 26.3793V44.9107L1.63439 37.8371ZM18.7992 44.9111V26.3797L34.3292 19.3061V37.8375L18.7992 44.9111Z" fill="white"/>
</svg>
