<?xml version="1.0" standalone="no"?>
<!DOCTYPE svg PUBLIC "-//W3C//DTD SVG 20010904//EN"
 "http://www.w3.org/TR/2001/REC-SVG-20010904/DTD/svg10.dtd">
<svg version="1.0" xmlns="http://www.w3.org/2000/svg"
 width="560.000000pt" height="560.000000pt" viewBox="0 0 560.000000 560.000000"
 preserveAspectRatio="xMidYMid meet">
<metadata>
Created by potrace 1.14, written by Peter Selinger 2001-2017
</metadata>
<g transform="translate(0.000000,560.000000) scale(0.100000,-0.100000)"
fill="#000000" stroke="none">
<path d="M2742 5590 c-13 -5 -45 -27 -70 -47 -68 -55 -174 -142 -197 -162 -11
-9 -58 -48 -105 -87 -91 -73 -187 -153 -260 -214 -25 -21 -90 -75 -145 -120
-55 -45 -102 -85 -105 -89 -3 -3 -41 -35 -85 -71 -44 -35 -82 -67 -85 -70 -3
-3 -45 -39 -95 -80 -49 -41 -95 -79 -101 -85 -6 -5 -30 -26 -54 -45 -24 -19
-49 -41 -56 -48 -8 -7 -42 -36 -77 -65 -34 -29 -76 -64 -92 -78 -28 -25 -246
-212 -289 -248 -10 -9 -30 -27 -46 -41 -15 -14 -54 -47 -86 -75 -32 -27 -81
-70 -109 -95 -58 -53 -52 -47 -145 -130 -221 -197 -233 -209 -226 -244 10 -50
60 -92 95 -81 14 4 376 261 426 302 6 4 28 21 50 38 22 16 42 33 43 37 2 4 8
8 13 8 5 0 35 20 67 45 72 57 77 61 192 147 52 39 97 73 100 77 3 3 49 39 103
79 54 41 106 80 115 87 10 8 55 43 102 79 47 36 90 69 95 74 6 4 145 113 310
242 165 128 305 239 312 244 18 16 32 27 103 81 36 27 71 56 79 63 8 7 37 31
65 52 28 21 85 65 126 99 41 33 80 61 87 61 7 0 110 -79 230 -176 120 -97 234
-189 253 -205 19 -15 77 -61 127 -103 101 -81 143 -100 202 -93 39 4 52 12 96
57 35 35 38 63 39 335 l1 240 138 1 c91 0 137 -3 138 -10 0 -6 2 -105 4 -221
12 -671 14 -746 30 -778 9 -18 53 -60 102 -97 48 -36 91 -69 97 -75 6 -5 29
-23 51 -40 22 -16 45 -33 50 -38 6 -4 57 -44 115 -88 58 -45 117 -91 132 -102
14 -12 36 -29 48 -37 12 -8 78 -57 146 -108 248 -186 388 -282 408 -282 25 1
46 16 69 50 29 43 21 61 -60 135 -42 39 -91 84 -109 101 -18 17 -65 59 -105
95 -39 35 -82 73 -93 84 -12 11 -53 47 -91 80 -86 74 -118 102 -158 138 -18
16 -49 43 -70 60 -21 18 -49 41 -61 52 -12 11 -49 43 -80 70 -32 28 -75 65
-95 82 -20 18 -39 33 -42 33 -4 0 -5 111 -2 248 3 136 6 384 7 552 2 431 34
401 -434 405 -306 4 -327 3 -365 -16 -75 -36 -80 -51 -83 -251 -2 -98 -7 -178
-10 -178 -4 0 -18 10 -32 23 -14 12 -108 88 -208 167 -338 267 -314 250 -368
255 -27 3 -59 0 -72 -5z"/>
<path d="M2147 3844 c-1 -1 -65 -4 -142 -7 -147 -6 -212 -20 -299 -64 -62 -31
-66 -35 -146 -113 -71 -70 -106 -125 -141 -222 -19 -55 -22 -82 -22 -208 1
-135 7 -297 18 -450 2 -36 7 -111 10 -167 3 -57 8 -111 10 -122 3 -15 -6 -21
-43 -31 -56 -16 -166 -64 -187 -82 -8 -7 -34 -29 -58 -48 -62 -50 -112 -114
-151 -195 -57 -117 -62 -165 -61 -580 1 -309 5 -397 20 -465 10 -47 59 -150
94 -200 69 -98 230 -211 321 -226 8 -1 26 -6 40 -10 14 -4 150 -8 302 -9 152
0 280 -4 284 -7 3 -4 -7 -19 -23 -35 -104 -102 -235 -321 -268 -447 -15 -59
-10 -67 62 -117 52 -36 64 -36 119 2 157 108 361 386 414 566 l13 43 51 1 c76
1 278 6 576 14 146 4 274 7 285 7 58 2 62 -1 69 -44 4 -24 7 -44 6 -46 -1 -4
93 -187 100 -192 3 -3 14 -18 24 -35 69 -111 240 -293 310 -329 36 -19 39 -19
70 -2 58 31 96 70 96 98 0 33 -34 127 -68 188 -27 48 -82 138 -94 155 -45 59
-163 195 -174 199 -26 10 -14 22 24 23 54 1 342 14 377 17 49 4 74 16 80 37 6
18 9 19 23 6 18 -15 53 -31 64 -29 3 1 21 4 38 7 121 21 249 99 330 201 49 62
94 168 104 249 15 115 27 762 15 818 -9 39 -25 84 -52 147 -17 37 -95 139
-129 169 -73 63 -235 142 -271 133 -8 -2 -5 67 8 233 8 95 27 503 28 585 2
275 -197 514 -473 567 -18 3 -189 15 -210 14 -8 -1 -31 -1 -50 0 -72 1 -1322
4 -1323 3z m1617 -339 c96 -46 163 -145 171 -257 4 -57 10 -190 20 -413 3 -80
9 -164 21 -306 l6 -77 -44 -7 c-91 -15 -214 -78 -288 -147 -117 -107 -182
-263 -184 -438 -1 -30 -5 -58 -9 -61 -10 -7 -1294 -2 -1306 5 -4 3 -7 27 -6
53 2 64 -18 176 -44 241 -71 178 -232 322 -409 364 -26 6 -53 12 -60 14 -10 3
-12 23 -8 86 4 46 9 117 12 158 6 94 10 172 19 378 3 90 8 171 10 180 17 85
44 132 106 185 79 68 41 66 992 65 471 -1 859 1 862 4 9 8 102 -10 139 -27z
m431 -1344 c86 -38 163 -131 180 -218 6 -28 12 -209 19 -576 4 -188 0 -221
-36 -302 -14 -33 -26 -49 -70 -93 -48 -48 -109 -83 -171 -98 -15 -3 -36 -17
-46 -30 -19 -25 -19 -25 -34 -4 -10 15 -28 22 -68 25 -60 5 -276 14 -444 20
-373 13 -461 15 -650 20 -338 9 -676 15 -1044 20 -224 3 -356 8 -380 16 -95
31 -171 113 -198 214 -3 11 -6 191 -6 400 l-1 380 26 56 c27 56 96 129 122
129 8 0 16 4 18 10 2 5 12 11 23 13 11 1 25 5 30 9 6 3 39 5 75 4 135 -4 247
-96 275 -225 4 -19 7 -98 7 -175 0 -150 8 -187 50 -229 13 -13 37 -28 54 -34
19 -7 232 -9 629 -8 1080 5 1080 5 1126 28 38 19 66 56 75 100 2 12 5 92 5
177 2 140 4 160 26 210 69 159 251 231 408 161z"/>
</g>
</svg>
