<svg width="85" height="35" viewBox="0 0 85 35" fill="none" xmlns="http://www.w3.org/2000/svg">
<path d="M27.363 22.5553C27.3339 22.4321 27.3086 22.3052 27.2687 22.1927V22.1929C27.1137 21.6878 26.8502 21.2226 26.4965 20.8299C25.9671 20.2441 25.2584 19.8501 24.4814 19.7101C24.5393 19.0757 24.5936 18.3435 24.6409 17.5351L24.7279 15.8062L24.7641 14.871C24.7754 14.6778 24.7754 14.4842 24.7641 14.291L24.7206 13.9719L24.648 13.6566V13.6569C24.4579 12.9864 24.0784 12.3849 23.555 11.9247C23.0316 11.4643 22.3869 11.1647 21.6977 11.0615C21.2941 11.0201 20.8889 11.0019 20.4833 11.0072C19.0335 10.9854 17.5039 10.9745 15.9924 10.9745C14.4809 10.9745 12.9657 10.9745 11.5015 11.0036H11.5013C11.096 10.9988 10.6905 11.017 10.2871 11.058C9.5964 11.1589 8.9494 11.457 8.42402 11.9169C7.89887 12.3766 7.51733 12.9783 7.32568 13.6496C7.2693 13.8585 7.23036 14.0721 7.20988 14.2875C7.198 14.4807 7.198 14.6744 7.20988 14.8675L7.24604 15.8027L7.33301 17.5316C7.3765 18.2856 7.42732 18.9814 7.47789 19.5687C6.95933 19.6583 6.46551 19.856 6.02816 20.1485C5.0851 20.7758 4.47092 21.7912 4.35364 22.9178V23.3165V27.2673C4.35364 27.3834 4.35364 27.5282 4.37538 27.6587C4.39713 27.7892 4.41533 27.9234 4.43707 28.0539C4.66437 29.0933 5.32349 29.9871 6.2494 30.5115C6.69489 30.7656 7.1887 30.9236 7.69913 30.9754C7.82605 30.9754 7.94918 30.9754 8.0617 30.9936H8.93854L11.0843 30.961C10.1094 31.9359 9.14152 33.4982 9.08721 34.3791L9.08747 34.3789C9.21136 34.5083 9.34991 34.6226 9.5006 34.7197C9.62044 34.8175 9.75192 34.9002 9.89199 34.9662C10.9794 34.5384 12.7083 32.2295 12.9475 30.932C15.1585 30.892 17.2065 30.8415 19.0223 30.7833C19.1384 32.0412 20.9507 34.5167 22.089 34.9627C22.2495 34.8838 22.4005 34.7864 22.5383 34.6727C22.671 34.5887 22.7929 34.4891 22.9009 34.3753C22.843 33.4112 21.7047 31.6641 20.6536 30.7216C21.7047 30.6817 22.6543 30.642 23.4952 30.5947V30.5949C23.7377 30.5406 23.8962 30.3075 23.8578 30.062C23.8677 29.8392 23.7139 29.6425 23.4952 29.598C20.1353 29.4167 14.9482 29.2863 8.94227 29.2028H7.90918V29.2031C7.65255 29.1697 7.40578 29.0832 7.18431 28.9492C6.73047 28.6762 6.41239 28.2251 6.30721 27.706L6.28193 27.5103V23.1135C6.34261 22.576 6.64045 22.0938 7.09379 21.7988C7.54712 21.5037 8.10869 21.4266 8.62468 21.5884C9.14068 21.7503 9.55764 22.1341 9.7614 22.6352C9.81121 22.7586 9.84509 22.8875 9.86278 23.0192C9.88503 23.1765 9.89338 23.3355 9.88832 23.4941V24.7411C9.88706 25.0098 9.99552 25.2677 10.1882 25.4548C10.3811 25.6422 10.6418 25.743 10.9105 25.7342C14.43 25.7342 17.8478 25.7051 21.0595 25.669H21.0813H21.081C21.328 25.669 21.5647 25.5693 21.7374 25.3926C21.9101 25.2161 22.0042 24.9772 21.9981 24.7302V23.2805C21.9913 22.7596 22.1945 22.2583 22.5622 21.8891C22.9295 21.5202 23.4301 21.3149 23.9507 21.3195C24.4716 21.324 24.9684 21.5384 25.3292 21.9139C25.5337 22.1197 25.6918 22.367 25.7931 22.6388L25.8548 22.8453L25.8948 23.0554V23.57L25.9527 25.8063L25.9853 26.8538V27.3395V27.34C25.9856 27.4614 25.9772 27.5825 25.96 27.7026C25.8789 28.1797 25.6462 28.6181 25.2966 28.9528C24.9793 29.2562 24.5818 29.4626 24.1513 29.5475C23.9406 29.6408 23.8178 29.8631 23.8504 30.0911C23.8494 30.2039 23.8944 30.3121 23.9753 30.391C24.0559 30.4696 24.1654 30.5118 24.2782 30.508C24.9179 30.4522 25.5269 30.2087 26.0288 29.8084C26.6151 29.3505 27.0341 28.7123 27.2215 27.9923C27.2655 27.7956 27.2933 27.5956 27.3046 27.3943C27.3046 27.1913 27.3046 27.0317 27.3264 26.8687L27.359 25.8211L27.4169 23.5848V22.9287C27.399 22.8164 27.3807 22.6895 27.3628 22.5552L27.363 22.5553ZM21.8499 20.2175C21.3407 20.5467 20.9192 20.9945 20.6211 21.5224C20.3228 22.0685 20.1632 22.6797 20.1572 23.3021V23.8022C17.5074 23.7769 14.742 23.7587 11.904 23.7514V23.494C11.91 23.2371 11.8954 22.9803 11.8605 22.7257C11.8208 22.445 11.7477 22.1699 11.6428 21.9065C11.2259 20.8312 10.3432 20.0032 9.24341 19.6558C9.03634 19.5923 8.82421 19.5476 8.60905 19.5215C8.66214 18.9271 8.71043 18.2566 8.75392 17.51L8.8409 15.7811L8.87706 14.8459H8.87731C8.88009 14.7184 8.89096 14.5913 8.90993 14.4651C8.92965 14.3546 8.95746 14.2454 8.99337 14.1389C9.15341 13.7076 9.46541 13.3493 9.87047 13.1314C10.0811 13.0212 10.3114 12.9534 10.5483 12.9319C10.7296 12.9102 11.1536 12.9319 11.5089 12.9319C12.9586 12.9537 14.4883 12.961 15.9997 12.961C17.5112 12.961 19.0265 12.961 20.4906 12.9284C20.8532 12.9284 21.2699 12.9066 21.4512 12.9284H21.4514C21.685 12.9534 21.9116 13.0235 22.1184 13.1349C22.5272 13.3562 22.8407 13.72 22.999 14.1572L23.0498 14.3202L23.0824 14.4869C23.1011 14.6143 23.112 14.7425 23.1151 14.8712L23.1512 15.8064L23.2346 17.5317C23.2817 18.3291 23.3325 19.0467 23.3904 19.6702C22.8428 19.7359 22.3166 19.923 21.8501 20.2176L21.8499 20.2175Z" fill="#1B1A1A"/>
<path d="M25.3837 7.50968C25.4307 5.55599 25.4706 3.41751 25.4959 0.985309H25.4962C25.499 0.739046 25.4039 0.501884 25.232 0.325882C25.06 0.149879 24.8251 0.0492823 24.5791 0.0464991H24.5609L20.9037 0.0100908C20.6473 0.0083209 20.4008 0.108442 20.2185 0.288716C20.0362 0.468991 19.9333 0.714489 19.9323 0.970862V2.8593L16.6011 0.216935C16.4272 0.0766095 16.2103 0 15.9868 0C15.7632 0 15.5463 0.0766095 15.3724 0.216935C9.23227 5.23701 3.49452 10.087 0.511302 12.867C0.384381 12.9866 0.431657 13.2584 0.616482 13.4649C0.801307 13.6715 1.00787 13.7296 1.13479 13.6389C4.35361 11.377 10.0152 7.00576 15.9848 2.25747L20.28 5.72257C20.4759 5.87908 20.7235 5.95569 20.9735 5.93697C21.2233 5.91852 21.457 5.80601 21.6276 5.62245C21.798 5.43889 21.8928 5.19743 21.8931 4.94684V1.96006H23.6401C23.6692 4.13498 23.7054 6.10653 23.7524 7.90093V7.94441C23.7592 8.17651 23.8697 8.3932 24.0533 8.53529C26.9531 10.8043 29.2328 12.5225 30.8747 13.6605C31.0125 13.7584 31.2626 13.6605 31.4257 13.4358C31.5887 13.211 31.5961 13.0118 31.4874 12.9066C30.0712 11.5726 28.0367 9.77372 25.3834 7.50954L25.3837 7.50968Z" fill="#1B1A1A"/>
<path d="M37.9761 25V15.752H39.6881V25H37.9761ZM37.9761 14.376V12.584H39.6881V14.376H37.9761ZM42.0803 25V15.752H43.7923V16.664C44.1016 16.376 44.443 16.1307 44.8163 15.928C45.1896 15.7253 45.6003 15.624 46.0483 15.624C46.4216 15.624 46.7043 15.72 46.8963 15.912C47.099 16.104 47.2376 16.344 47.3123 16.632C47.3976 16.92 47.4403 17.2133 47.4403 17.512V25H45.7283V18.008C45.7283 17.6773 45.6803 17.4213 45.5843 17.24C45.4883 17.0587 45.291 16.968 44.9923 16.968C44.8003 16.968 44.5976 17.0267 44.3843 17.144C44.1816 17.2507 43.9843 17.384 43.7923 17.544V25H42.0803ZM52.1356 25.128C51.6556 25.128 51.2662 25.0373 50.9676 24.856C50.6796 24.6747 50.4662 24.4187 50.3276 24.088C50.1996 23.7573 50.1356 23.368 50.1356 22.92V16.888H49.1596V15.752H50.1356V13.048H51.8476V15.752H53.3356V16.888H51.8476V22.808C51.8476 23.1707 51.9062 23.432 52.0236 23.592C52.1409 23.7413 52.3649 23.816 52.6956 23.816C52.7809 23.816 52.8769 23.8107 52.9836 23.8C53.1009 23.7893 53.2129 23.7787 53.3196 23.768V25.032C53.1062 25.064 52.9089 25.0853 52.7276 25.096C52.5462 25.1173 52.3489 25.128 52.1356 25.128ZM57.7134 25.128C56.9881 25.128 56.4281 24.9893 56.0334 24.712C55.6388 24.424 55.3614 24.008 55.2014 23.464C55.0521 22.9093 54.9774 22.232 54.9774 21.432V19.32C54.9774 18.4987 55.0574 17.816 55.2174 17.272C55.3774 16.728 55.6548 16.3173 56.0494 16.04C56.4548 15.7627 57.0094 15.624 57.7134 15.624C58.4921 15.624 59.0628 15.784 59.4254 16.104C59.7988 16.424 60.0441 16.888 60.1614 17.496C60.2788 18.0933 60.3374 18.8133 60.3374 19.656V20.408H56.6894V22.264C56.6894 22.6373 56.7214 22.9413 56.7854 23.176C56.8601 23.4107 56.9721 23.5867 57.1214 23.704C57.2814 23.8107 57.4841 23.864 57.7294 23.864C57.9854 23.864 58.1774 23.8053 58.3054 23.688C58.4441 23.56 58.5348 23.384 58.5774 23.16C58.6308 22.9253 58.6574 22.6533 58.6574 22.344V21.784H60.3214V22.136C60.3214 23.064 60.1241 23.7947 59.7294 24.328C59.3348 24.8613 58.6628 25.128 57.7134 25.128ZM56.6894 19.48H58.6574V18.648C58.6574 18.264 58.6361 17.944 58.5934 17.688C58.5508 17.4213 58.4601 17.224 58.3214 17.096C58.1934 16.9573 57.9854 16.888 57.6974 16.888C57.4201 16.888 57.2068 16.952 57.0574 17.08C56.9188 17.208 56.8228 17.4267 56.7694 17.736C56.7161 18.0347 56.6894 18.4507 56.6894 18.984V19.48ZM62.4958 25V15.752H64.2078V17.064C64.5491 16.4987 64.8905 16.12 65.2318 15.928C65.5731 15.736 65.9145 15.64 66.2558 15.64C66.2985 15.64 66.3358 15.64 66.3678 15.64C66.4105 15.64 66.4638 15.6453 66.5278 15.656V17.544C66.3998 17.4907 66.2505 17.448 66.0798 17.416C65.9198 17.3733 65.7545 17.352 65.5838 17.352C65.3171 17.352 65.0718 17.416 64.8478 17.544C64.6345 17.6613 64.4211 17.896 64.2078 18.248V25H62.4958ZM68.2604 25V15.752H69.9724V25H68.2604ZM68.2604 14.376V12.584H69.9724V14.376H68.2604ZM74.9087 25.128C74.226 25.128 73.6874 24.9893 73.2927 24.712C72.898 24.4347 72.6154 24.04 72.4447 23.528C72.2847 23.016 72.2047 22.4133 72.2047 21.72V19.032C72.2047 18.3387 72.2847 17.736 72.4447 17.224C72.6154 16.712 72.898 16.3173 73.2927 16.04C73.6874 15.7627 74.226 15.624 74.9087 15.624C75.5914 15.624 76.1247 15.7627 76.5087 16.04C76.9034 16.3173 77.1807 16.712 77.3407 17.224C77.5114 17.736 77.5967 18.3387 77.5967 19.032V21.72C77.5967 22.4133 77.5114 23.016 77.3407 23.528C77.1807 24.04 76.9034 24.4347 76.5087 24.712C76.1247 24.9893 75.5914 25.128 74.9087 25.128ZM74.9087 23.864C75.2394 23.864 75.4687 23.768 75.5967 23.576C75.7354 23.384 75.8154 23.1333 75.8367 22.824C75.8687 22.504 75.8847 22.1733 75.8847 21.832V18.936C75.8847 18.584 75.8687 18.2533 75.8367 17.944C75.8154 17.6347 75.7354 17.384 75.5967 17.192C75.4687 16.9893 75.2394 16.888 74.9087 16.888C74.578 16.888 74.3434 16.9893 74.2047 17.192C74.066 17.384 73.9807 17.6347 73.9487 17.944C73.9274 18.2533 73.9167 18.584 73.9167 18.936V21.832C73.9167 22.1733 73.9274 22.504 73.9487 22.824C73.9807 23.1333 74.066 23.384 74.2047 23.576C74.3434 23.768 74.578 23.864 74.9087 23.864ZM79.7696 25V15.752H81.4816V17.064C81.8229 16.4987 82.1642 16.12 82.5056 15.928C82.8469 15.736 83.1882 15.64 83.5296 15.64C83.5722 15.64 83.6096 15.64 83.6416 15.64C83.6842 15.64 83.7376 15.6453 83.8016 15.656V17.544C83.6736 17.4907 83.5242 17.448 83.3536 17.416C83.1936 17.3733 83.0282 17.352 82.8576 17.352C82.5909 17.352 82.3456 17.416 82.1216 17.544C81.9082 17.6613 81.6949 17.896 81.4816 18.248V25H79.7696Z" fill="#555555"/>
</svg>
