<svg width="17" height="16" viewBox="0 0 17 16" fill="none" xmlns="http://www.w3.org/2000/svg">
<path d="M5.15375 0.431641C2.62721 0.431641 0.571442 2.39917 0.571442 4.81644V11.0789C0.571442 13.4959 2.62842 15.4626 5.15559 15.4626H11.7028C14.2297 15.4626 16.2857 13.495 16.2857 11.0778V4.81468C16.2857 2.39801 14.2287 0.431641 11.7016 0.431641H5.15375ZM13.1429 2.83659C13.4898 2.83659 13.7714 3.10594 13.7714 3.43782C13.7714 3.76971 13.4898 4.03906 13.1429 4.03906C12.7959 4.03906 12.5143 3.76971 12.5143 3.43782C12.5143 3.10594 12.7959 2.83659 13.1429 2.83659ZM8.42858 4.03906C10.682 4.03906 12.5143 5.79167 12.5143 7.9471C12.5143 10.1025 10.6817 11.8551 8.42858 11.8551C6.17516 11.8551 4.34287 10.1022 4.34287 7.9471C4.34287 5.79197 6.17516 4.03906 8.42858 4.03906ZM8.42858 5.24154C6.86627 5.24154 5.60001 6.45273 5.60001 7.9471C5.60001 9.44148 6.86627 10.6527 8.42858 10.6527C9.9909 10.6527 11.2572 9.44148 11.2572 7.9471C11.2572 6.45273 9.9909 5.24154 8.42858 5.24154Z" fill="#696969"/>
</svg>
