<svg width="18" height="19" viewBox="0 0 18 19" fill="none" xmlns="http://www.w3.org/2000/svg">
<path d="M11.67 13.5016C10.4619 14.368 8.98436 14.8782 7.38765 14.8782C3.30786 14.8782 -0.00012207 11.5473 -0.00012207 7.43912C-0.00012207 3.33097 3.30786 0 7.38765 0C11.4674 0 14.7754 3.33097 14.7754 7.43912C14.7754 9.49326 13.9489 11.3531 12.6113 12.6993L17.8237 17.9479C18.0627 18.1886 18.0567 18.5746 17.8167 18.816C17.5752 19.0593 17.1908 19.061 16.9546 18.8231L11.6692 13.5009L11.67 13.5016ZM7.38765 14.003C10.9876 14.003 13.9063 11.0641 13.9063 7.43912C13.9063 3.81413 10.9876 0.87519 7.38765 0.87519C3.78768 0.87519 0.869028 3.81413 0.869028 7.43912C0.869028 11.0641 3.78768 14.003 7.38765 14.003Z" fill="#1B1A1A"/>
</svg>
