<svg width="19" height="17" viewBox="0 0 19 17" fill="none" xmlns="http://www.w3.org/2000/svg">
<path d="M18.5714 2.29351C17.8888 2.61187 17.1548 2.82411 16.3805 2.92441C17.1678 2.4325 17.7734 1.6479 18.0576 0.7209C17.321 1.1755 16.5051 1.50926 15.6368 1.68521C14.9435 0.911572 13.9545 0.431641 12.8589 0.431641C10.7542 0.431641 9.04848 2.2117 9.04848 4.40631C9.04848 4.71679 9.08295 5.0194 9.14799 5.31311C5.9818 5.14572 3.17367 3.56146 1.29496 1.15702C0.964881 1.74443 0.779189 2.4325 0.779189 3.15855C0.779189 4.53844 1.45041 5.75299 2.47383 6.46878C1.84911 6.44858 1.26114 6.26579 0.746343 5.97242C0.746343 5.9844 0.746343 6.0022 0.746343 6.01897C0.746343 7.94726 2.06017 9.55273 3.80164 9.91833C3.48326 10.0101 3.147 10.0611 2.80033 10.0611C2.55415 10.0611 2.31448 10.0316 2.08228 9.98782C2.56716 11.5635 3.97399 12.7154 5.64067 12.7493C4.3366 13.8136 2.69432 14.451 0.908295 14.451C0.599676 14.451 0.298212 14.4325 0 14.3945C1.68683 15.519 3.69042 16.1783 5.84099 16.1783C12.8488 16.1783 16.6823 10.1206 16.6823 4.8657C16.6823 4.69351 16.6771 4.52201 16.6693 4.35256C17.4176 3.79664 18.0622 3.09488 18.5714 2.29351Z" fill="#696969"/>
</svg>
